<svg xmlns="http://www.w3.org/2000/svg" viewBox="0 0 534.05 415.98"><defs><style>.cls-1{opacity:0.65;}.cls-2{fill:#fafafa;}.cls-3{fill:#ff3e00;}</style></defs><g id="Layer_2" data-name="Layer 2"><g id="Layer_1-2" data-name="Layer 1"><g class="cls-1"><path d="M437.12,349.47l-42.07,50.11L55.12,114.26,97.19,64.15ZM3.53,28.24,3,170.86l3.53,1.29L145.78,6.25,143.89,3Z"/><path d="M96.44,65,138.5,14.92,478.43,300.25l-42.06,50.11ZM530,386.26l.53-142.61L527,242.36,387.78,408.25l1.88,3.26Z"/><path d="M100.69,353.86,58.62,303.75,398.55,18.42l42.07,50.12ZM152.83,416,10,245.86,6.5,247.15,7,388.1l1.65,2Z"/><path d="M439.87,67.65l42.06,50.11L142,403.08,99.94,353ZM387.72,5.52l142.8,170.13,3.53-1.29-.52-141-1.65-2Z"/></g><path class="cls-2" d="M434.12,346.47l-42.07,50.11L52.12,111.26,94.19,61.15ZM.53,25.24,0,167.86l3.53,1.29L142.78,3.25,140.89,0Z"/><path class="cls-2" d="M93.44,62,135.5,11.92,475.43,297.25l-42.06,50.11ZM527,383.26l.53-142.61L524,239.36,384.78,405.25l1.88,3.26Z"/><path class="cls-3" d="M97.69,350.86,55.62,300.75,395.55,15.42l42.07,50.12ZM149.83,413,7,242.86,3.5,244.15,4,385.1l1.65,2Z"/><path class="cls-3" d="M436.87,64.65l42.06,50.11L139,400.08,96.94,350ZM384.72,2.52l142.8,170.13,3.53-1.29-.52-141-1.65-2Z"/></g></g></svg>